<svg width="14" height="21" viewBox="0 0 14 21" fill="none" xmlns="http://www.w3.org/2000/svg">
<path opacity="0.7" d="M2 14.2L2 19.2L12 19.2L12 14.2C12 13.9 11.9 13.7 11.7 13.5L8.4 10.2L11.7 6.90001C11.9 6.70001 12 6.50001 12 6.20001L12 1.20001L2 1.20001L2 6.20001C2 6.50001 2.1 6.70001 2.3 6.90001L5.6 10.2L2.3 13.5C2.1 13.7 2 13.9 2 14.2Z" fill="#94A3B8"/>
<path d="M1 18.2L13 18.2C13.6 18.2 14 18.6 14 19.2C14 19.8 13.6 20.2 13 20.2L1 20.2C0.400002 20.2 1.87238e-06 19.8 1.81993e-06 19.2C1.76747e-06 18.6 0.400002 18.2 1 18.2ZM1 2.20002L4 2.20001L4.71959 2.20001L5.5 2.20001C6.3 2.20001 6.3 2.20002 7 2.20001L9.2529 2.20001L10 2.20001L13 2.20001C13.6 2.20001 14 1.80001 14 1.20001C14 0.600014 13.6 0.200014 13 0.200014L1 0.200015C0.4 0.200015 1.93862e-07 0.600015 2.46316e-07 1.20002C2.9877e-07 1.80002 0.4 2.20002 1 2.20002ZM9.6 16L8 14C7.6 13.6 6.4 13.6 6 14L4.4 16L4.4 18.2L7 18.2L9.6 18.2L9.6 17L9.6 16Z" fill="#8B5CF6"/>
</svg>
