<svg width="14" height="21" viewBox="0 0 14 21" fill="none" xmlns="http://www.w3.org/2000/svg">
<path opacity="0.7" d="M2 13.5556L2 18L12 18L12 13.5556C12 13.2889 11.9 13.1111 11.7 12.9333L8.4 10L11.7 7.06666C11.9 6.88889 12 6.71111 12 6.44444L12 2L2 2L2 6.44445C2 6.71111 2.1 6.88889 2.3 7.06666L5.6 10L2.3 12.9333C2.1 13.1111 2 13.2889 2 13.5556Z" fill="#94A3B8" fill-opacity="0.7"/>
<path d="M1 18L13 18C13.6 18 14 18.4 14 19C14 19.6 13.6 20 13 20L1 20C0.400004 20 3.54131e-06 19.6 3.48886e-06 19C3.4364e-06 18.4 0.400003 18 1 18ZM1 2L4 2L4.71959 2L5.5 2C6.30001 2 6.3 2 7 2L9.2529 2L10 2L13 2C13.6 2 14 1.6 14 1C14 0.4 13.6 -4.41868e-07 13 -3.89414e-07L1 6.59659e-07C0.400002 7.12113e-07 1.86279e-06 0.400001 1.91525e-06 1C1.9677e-06 1.6 0.400002 2 1 2ZM9.6 15.8L8 13.8C7.6 13.4 6.4 13.4 6 13.8L4.4 15.8L4.4 18L7 18L9.6 18L9.6 16.8L9.6 15.8Z" fill="#8B5CF6" fill-opacity="0.7"/>
</svg>
